<mxfile host="Electron" agent="Mozilla/5.0 (Windows NT 10.0; Win64; x64) AppleWebKit/537.36 (KHTML, like Gecko) draw.io/26.0.9 Chrome/128.0.6613.186 Electron/32.2.5 Safari/537.36" version="26.0.9">
  <diagram name="Leht-1" id="T8qV38q_0hMNWIAXZhxP">
    <mxGraphModel dx="1098" dy="988" grid="1" gridSize="10" guides="1" tooltips="1" connect="1" arrows="1" fold="1" page="1" pageScale="1" pageWidth="827" pageHeight="1169" math="0" shadow="0">
      <root>
        <mxCell id="0" />
        <mxCell id="1" parent="0" />
        <mxCell id="NeNe77OH7LXK1MbAINId-14" value="" style="edgeStyle=orthogonalEdgeStyle;rounded=0;orthogonalLoop=1;jettySize=auto;html=1;" edge="1" parent="1" source="NeNe77OH7LXK1MbAINId-1" target="NeNe77OH7LXK1MbAINId-13">
          <mxGeometry relative="1" as="geometry" />
        </mxCell>
        <mxCell id="NeNe77OH7LXK1MbAINId-1" value="Start" style="ellipse;whiteSpace=wrap;html=1;" vertex="1" parent="1">
          <mxGeometry x="354" y="60" width="120" height="80" as="geometry" />
        </mxCell>
        <mxCell id="NeNe77OH7LXK1MbAINId-8" value="" style="edgeStyle=orthogonalEdgeStyle;rounded=0;orthogonalLoop=1;jettySize=auto;html=1;" edge="1" parent="1" target="NeNe77OH7LXK1MbAINId-7">
          <mxGeometry relative="1" as="geometry">
            <mxPoint x="414" y="290" as="sourcePoint" />
          </mxGeometry>
        </mxCell>
        <mxCell id="NeNe77OH7LXK1MbAINId-17" value="" style="edgeStyle=orthogonalEdgeStyle;rounded=0;orthogonalLoop=1;jettySize=auto;html=1;" edge="1" parent="1" source="NeNe77OH7LXK1MbAINId-7" target="NeNe77OH7LXK1MbAINId-16">
          <mxGeometry relative="1" as="geometry" />
        </mxCell>
        <mxCell id="NeNe77OH7LXK1MbAINId-7" value="&lt;div&gt;&lt;div&gt;&amp;nbsp; &amp;nbsp; &amp;nbsp; &amp;nbsp; &amp;nbsp; &amp;nbsp; for (int i = 0; i &amp;lt; side; i++)&lt;/div&gt;&lt;div&gt;&amp;nbsp; &amp;nbsp; &amp;nbsp; &amp;nbsp; &amp;nbsp; &amp;nbsp; {&lt;/div&gt;&lt;div&gt;&amp;nbsp; &amp;nbsp; &amp;nbsp; &amp;nbsp; &amp;nbsp; &amp;nbsp; &amp;nbsp; &amp;nbsp; for (int j = 0; j &amp;lt; side; j++)&lt;/div&gt;&lt;div&gt;&amp;nbsp; &amp;nbsp; &amp;nbsp; &amp;nbsp; &amp;nbsp; &amp;nbsp; &amp;nbsp; &amp;nbsp; {&lt;/div&gt;&lt;div&gt;&amp;nbsp; &amp;nbsp; &amp;nbsp; &amp;nbsp; &amp;nbsp; &amp;nbsp; &amp;nbsp; &amp;nbsp; &amp;nbsp; &amp;nbsp; Console.Write(&quot;*&quot;);&lt;/div&gt;&lt;/div&gt;&lt;div&gt;&lt;div&gt;&lt;br&gt;&lt;/div&gt;&lt;div&gt;Arvuta 체mberm천천t: 4 * side&lt;br&gt;&lt;/div&gt;&lt;/div&gt;" style="whiteSpace=wrap;html=1;" vertex="1" parent="1">
          <mxGeometry x="274.25" y="330" width="281.5" height="110" as="geometry" />
        </mxCell>
        <mxCell id="NeNe77OH7LXK1MbAINId-13" value="Console.WriteLine(&quot;Sisesta ruudu k체lje pikkus: &quot;);&lt;div&gt;&lt;br&gt;&lt;/div&gt;&lt;div&gt;&amp;nbsp; &amp;nbsp; &amp;nbsp; &amp;nbsp; &amp;nbsp; &amp;nbsp;int side = Int32.Parse(Console.ReadLine());&lt;br&gt;&lt;/div&gt;" style="whiteSpace=wrap;html=1;" vertex="1" parent="1">
          <mxGeometry x="306" y="180" width="224" height="110" as="geometry" />
        </mxCell>
        <mxCell id="NeNe77OH7LXK1MbAINId-19" value="" style="edgeStyle=orthogonalEdgeStyle;rounded=0;orthogonalLoop=1;jettySize=auto;html=1;" edge="1" parent="1" source="NeNe77OH7LXK1MbAINId-16" target="NeNe77OH7LXK1MbAINId-18">
          <mxGeometry relative="1" as="geometry" />
        </mxCell>
        <mxCell id="NeNe77OH7LXK1MbAINId-16" value="&lt;div&gt;&amp;nbsp; &amp;nbsp; &amp;nbsp; &amp;nbsp; &amp;nbsp; &amp;nbsp; int umbermoot = 4 * side;&lt;/div&gt;&lt;div&gt;&amp;nbsp; &amp;nbsp; &amp;nbsp; &amp;nbsp; &amp;nbsp; &amp;nbsp; int pindala = side * side;&lt;/div&gt;" style="whiteSpace=wrap;html=1;" vertex="1" parent="1">
          <mxGeometry x="308" y="495" width="214" height="90" as="geometry" />
        </mxCell>
        <mxCell id="NeNe77OH7LXK1MbAINId-22" value="" style="edgeStyle=orthogonalEdgeStyle;rounded=0;orthogonalLoop=1;jettySize=auto;html=1;" edge="1" parent="1" source="NeNe77OH7LXK1MbAINId-18" target="NeNe77OH7LXK1MbAINId-21">
          <mxGeometry relative="1" as="geometry" />
        </mxCell>
        <mxCell id="NeNe77OH7LXK1MbAINId-18" value="&lt;div&gt;&amp;nbsp; &amp;nbsp; &amp;nbsp; &amp;nbsp; &amp;nbsp; &amp;nbsp; Console.WriteLine(&quot;Ruudu umbermoot on: &quot; + umbermoot);&lt;/div&gt;&lt;div&gt;&amp;nbsp; &amp;nbsp; &amp;nbsp; &amp;nbsp; &amp;nbsp; &amp;nbsp; Console.WriteLine(&quot;Ruudu pindala on: &quot; + pindala);&lt;/div&gt;" style="whiteSpace=wrap;html=1;" vertex="1" parent="1">
          <mxGeometry x="245" y="640" width="340" height="110" as="geometry" />
        </mxCell>
        <mxCell id="NeNe77OH7LXK1MbAINId-21" value="" style="ellipse;whiteSpace=wrap;html=1;" vertex="1" parent="1">
          <mxGeometry x="332.5" y="845" width="165" height="80" as="geometry" />
        </mxCell>
      </root>
    </mxGraphModel>
  </diagram>
</mxfile>
